<?xml version="1.0" encoding="utf-8"?>
<svg version="1.1" id="Layer_1" xmlns="http://www.w3.org/2000/svg" xmlns:xlink="http://www.w3.org/1999/xlink" x="0px" y="0px"
	 width="300px" height="300px" viewBox="-200 -200 900 900" fill="white" xml:space="preserve">
<g>
	<path d="M256,256c0-113.7,170.7-113.7,170.7,0C426.7,369.8,256,369.8,256,256z M85.3,426.7c0-47.2,38.2-85.3,85.3-85.3H256v85.3
		C256,540.4,85.3,540.4,85.3,426.7L85.3,426.7z M256,0v170.7h85.3c113.8,0,113.8-170.7,0-170.7H256z M85.3,85.3
		c0,47.2,38.2,85.3,85.3,85.3H256V0h-85.3C123.5,0,85.3,38.2,85.3,85.3L85.3,85.3z M85.3,256c0,47.2,38.2,85.3,85.3,85.3H256V170.7
		h-85.3C123.5,170.7,85.3,208.8,85.3,256L85.3,256z"/>
</g>
</svg>
