<svg width="48" height="48" viewBox="0 0 48 48" fill="none" xmlns="http://www.w3.org/2000/svg">
<circle opacity="0.5" cx="24" cy="24" r="24" fill="#262626"/>
<path d="M6.39065 20.2532C5.071 20.8691 1.57821 23.6418 0.905484 24.4633C0.20685 25.2848 -7.31464e-05 24.0012 0.724347 21.8705C1.29342 20.1504 2.74251 17.8142 5.17452 15.8119C6.59745 14.6567 9.72822 12.9881 11.6427 12.0124C12.0309 11.807 17.0503 9.70193 21.5264 8.6494C21.9146 8.54668 21.0607 9.29118 20.9313 9.70193C20.2585 11.653 6.83028 20.022 6.83028 20.022L6.39065 20.2532ZM25.3038 43.7942C25.5367 45.1805 25.3297 45.2832 23.8809 45.4629C22.4319 45.6426 21.3712 45.1034 20.9831 44.7441C20.5949 44.3845 20.5174 43.5889 20.9055 42.8701C21.1384 42.4079 21.3713 42.2539 21.5007 41.6891C21.63 41.1501 21.7336 41.0216 21.837 40.8163C21.9403 40.6365 21.9664 40.4567 21.9922 39.1989C22.0181 37.9411 21.9922 35.5792 22.1216 34.578C22.251 33.5512 26.7271 35.0401 26.7271 35.0401C26.7271 35.0401 25.6662 37.6586 25.3817 38.3004C25.097 38.9423 25.1229 40.1744 25.1229 40.4312C25.1229 40.6879 25.0195 41.2012 24.9418 41.227C24.8642 41.2525 25.2006 41.92 25.0452 42.3052C24.9417 42.6646 25.278 43.5889 25.3038 43.7942ZM27.0115 4.54189C26.8562 3.56637 27.0115 1.64079 27.2185 1.33288C27.8654 0.459955 31.2806 0.357361 32.0051 1.38418C32.3156 1.84623 32.2897 2.92446 32.238 3.61766C32.1863 4.31073 32.0051 5.79973 31.9792 6.28761C31.9534 6.64707 28.2018 7.21171 27.3738 6.23619C27.1409 5.97958 27.0115 4.54189 27.0115 4.54189ZM34.6183 41.304C36.1966 42.4336 37.4126 42.6389 38.2146 43.0497C39.0166 43.4606 38.8097 44.2564 37.4643 44.4874C36.3776 44.6927 34.67 44.2819 33.5316 44.2819C32.3932 44.2819 29.8575 44.4104 29.1848 43.9483C28.4087 43.4093 28.7449 42.4079 28.7449 42.4079C28.952 41.8433 29.4693 40.5852 29.3141 39.5584C29.1589 38.5315 28.9518 37.9668 28.5638 37.0168C28.1757 36.067 27.8912 33.731 28.2535 33.6025C28.6157 33.4741 28.5121 33.6025 28.9779 33.7051C29.4436 33.8077 29.9611 33.9619 30.9701 33.9619C31.9792 33.9619 33.0917 33.8077 33.4799 33.7308C33.8679 33.6538 34.1784 33.5767 34.0489 34.3726C33.9196 35.1684 33.5316 36.6574 33.5057 37.8126C33.4799 38.9679 33.4799 40.3029 33.5575 40.5339C33.635 40.7649 34.2043 41.0216 34.6183 41.304Z" fill="#010101"/>
<path d="M29.0817 7.10902C26.2357 9.54794 20.7246 10.2153 12.5488 13.3473C10.453 14.1431 4.86448 16.5306 3.51904 19.0208C8.04683 16.428 9.72863 19.9963 10.0908 23.6674C10.427 27.1074 12.1606 28.9046 16.6108 28.8017C21.1904 28.6991 22.5876 31.3432 23.8553 34.4496C26.3132 22.5634 30.246 20.2531 32.7814 18.225C38.1632 13.8864 31.5396 6.23609 29.0817 7.10902Z" fill="#8AC640"/>
<path d="M29.0817 7.10913C22.2512 9.47092 15.4982 10.0614 7.55524 14.9134C5.66651 16.0687 1.68201 18.6871 0.905762 23.6932C3.80345 20.5098 10.5046 16.5051 18.7065 13.9636C22.8462 12.6799 25.8735 11.8328 29.5474 10.4209C29.2888 8.77773 29.2888 8.13595 29.0817 7.10913V7.10913Z" fill="#8AC640"/>
<path d="M37.8005 21.1772C37.8005 21.1772 37.3089 22.8459 36.3258 23.3851C36.3258 23.3851 35.6013 23.6418 34.1525 22.8461C33.7385 22.615 33.4281 21.8192 33.4539 21.5624C33.4798 20.9462 33.8678 20.6639 33.8678 20.6639C33.8678 20.6639 34.2819 19.9707 34.7734 19.9964C35.2651 20.022 36.093 20.099 36.3518 19.8679C36.5845 19.6112 37.8523 20.33 37.8005 21.1772V21.1772ZM27.2443 5.0296C27.2443 5.0296 27.1409 6.33899 26.9597 7.16037C26.9338 7.31451 26.1577 7.39139 25.5884 7.62254C26.6751 10.7031 33.221 10.6774 34.0749 9.16283C33.6609 8.88051 32.833 8.44404 32.4449 8.29003C32.0567 8.13589 32.0826 8.1616 32.0567 7.44281C32.0309 6.7239 31.9791 5.38906 31.9273 5.0296C31.8756 4.67015 27.8652 4.67015 27.2443 5.0296Z" fill="#010101"/>
<path d="M27.5033 5.02953C27.5033 5.02953 27.5033 5.77403 27.4257 6.49282C27.3999 6.82656 27.374 7.03188 27.3223 7.28861C27.2964 7.44276 28.202 8.0587 28.4607 9.41939C29.7026 12.1662 32.5746 10.8057 33.7647 9.49639C33.3507 9.21395 32.678 8.8289 31.9019 8.52087C31.5137 8.36673 31.6948 8.03311 31.6691 7.31432C31.6431 6.59554 31.5396 5.54288 31.4879 5.15784C31.436 4.7728 28.1243 4.67008 27.5033 5.02953V5.02953Z" fill="#F0EFEF"/>
<path d="M27.2445 5.0296C27.2445 5.0296 27.2186 5.49178 27.1411 6.03084C27.4773 6.36445 27.9172 6.82663 28.2537 7.10908C28.4866 7.31452 29.0556 7.28881 29.5732 7.28881C30.0389 7.28881 30.4529 7.3401 30.634 7.23751C31.0481 7.03207 31.6431 6.51872 31.9795 6.13356C31.9537 5.67151 31.9278 5.23504 31.902 5.0296C31.8758 4.67015 27.8654 4.67015 27.2445 5.0296V5.0296Z" fill="#010101"/>
<path d="M29.5991 6.98073C29.2886 6.98073 28.9263 6.95514 28.6418 6.90372C28.5123 6.87814 28.383 6.80113 28.2795 6.7497C28.0983 6.62127 27.9172 6.46738 27.7104 6.31324C27.2963 6.00521 27.2705 5.82548 27.2705 5.7486C27.4517 4.13118 27.2187 2.77062 27.2187 2.77062C27.2187 2.77062 27.0376 2.07742 28.0207 1.8977C29.0039 1.71797 29.599 1.69238 29.599 1.69238C29.599 1.69238 30.22 1.69238 31.1773 1.8977C32.1605 2.07742 31.9793 2.77062 31.9793 2.77062C31.9793 2.77062 31.7465 4.13118 31.9276 5.7486C31.9276 5.82548 31.9018 6.00521 31.4877 6.31324C31.1255 6.56998 30.8409 6.8523 30.5564 6.90372C30.2717 6.95514 29.9095 6.98073 29.5991 6.98073V6.98073Z" fill="#010101"/>
<path d="M29.5991 1.0249C27.8915 1.0249 27.555 1.48695 27.0634 2.00042C26.96 2.12873 27.0375 2.89894 27.2188 4.54194H27.4516C27.4516 4.54194 27.2962 4.07977 27.3222 3.54071C27.3481 3.00165 27.4516 3.02737 27.3739 2.89894C27.2705 2.74479 27.0634 2.48806 27.5292 2.23145C27.9949 1.97471 28.7193 2.43676 29.5991 2.46247C30.4787 2.43676 31.229 1.97471 31.6947 2.23145C32.1604 2.48806 31.9535 2.74479 31.8501 2.89894C31.7465 3.05295 31.8759 3.00153 31.9018 3.54071C31.9276 4.07977 31.7723 4.54194 31.7723 4.54194H32.0052C32.1604 2.89894 32.2639 2.18015 32.1863 2.05172C31.7464 1.48695 31.3067 1.05049 29.5991 1.0249V1.0249ZM37.8008 21.2543C37.8008 21.2543 37.3092 22.8203 36.3519 23.3594C36.1449 23.2568 36.1708 23.1028 35.9897 22.8716C35.9378 22.7948 35.7567 22.7432 35.6792 22.6663C35.6016 22.5893 35.6275 22.4609 35.4981 22.3583C35.3946 22.2556 35.317 22.3326 35.2134 22.2556C35.11 22.153 35.084 22.0246 35.0065 21.9477C34.9547 21.8963 34.7478 21.8707 34.6961 21.8192C34.5666 21.6908 33.4284 21.4598 33.4801 21.2031C33.5834 20.8179 33.7905 20.5356 33.7905 20.5356C33.7905 20.5356 34.2821 19.8168 34.7735 19.8424C35.2651 19.8681 35.7309 19.9708 35.9897 19.7398C36.2743 19.4829 37.8785 20.4328 37.8008 21.2543Z" fill="#010101"/>
<path d="M34.4371 9.9074C34.4371 9.9074 36.0671 9.52223 37.1797 10.5749C38.2923 11.6531 38.2145 12.988 37.8783 13.8095C38.1628 14.1432 38.6803 15.0673 38.2923 16.1713C39.9999 17.6088 39.2495 19.8167 37.7231 21.28C37.7231 21.28 37.3608 19.945 35.912 19.868C35.9637 19.3547 34.5665 18.9438 35.2133 17.6088C34.2302 17.3778 34.2561 16.7103 34.1009 15.8889C33.9714 15.0673 34.4371 9.9074 34.4371 9.9074V9.9074Z" fill="#010101"/>
<path d="M33.8422 10.6263C33.8422 10.6263 35.7309 9.67645 36.8435 10.7547C37.956 11.8329 37.6454 13.0138 37.3092 13.8353C37.5937 14.1689 38.2664 15.1189 37.8525 16.2483C37.7749 16.5051 37.2057 16.5051 36.7916 17.1726C37.8264 16.582 38.4734 16.7361 38.7062 17.4805C39.0685 18.6357 38.2663 20.022 37.5678 20.7922C37.5678 20.7665 37.5419 20.7408 37.5419 20.7152C37.4385 21.1003 37.3091 21.8447 36.5329 22.6662C36.1447 23.077 35.8343 23.0257 35.3944 22.923C34.877 22.7945 34.6959 22.5634 33.9715 22.1785C33.5575 21.9474 33.7904 21.665 33.7904 21.434C33.7904 21.3827 33.842 21.3055 33.9198 21.2029C33.9715 21.0745 34.1267 20.8693 34.3595 20.6382C34.3595 20.6382 34.6959 20.1761 35.1876 20.2017C35.6792 20.2274 36.1966 20.1248 36.326 19.9964C36.326 19.0979 35.2911 19.0722 35.6533 17.5319C35.6792 17.4549 35.8086 17.3265 36.2225 17.2752C35.6015 17.1467 35.3169 17.121 34.877 16.7104C34.5666 16.4281 34.3338 16.0686 34.256 15.6066C34.1009 14.8108 33.8422 10.6263 33.8422 10.6263V10.6263Z" fill="#F0EFEF"/>
<path d="M28.3829 9.00877C28.2276 8.80333 27.4256 7.77651 25.899 7.36576C25.4591 7.23733 25.1746 7.59679 24.7348 7.85352C24.6054 7.77651 24.0362 7.51978 23.7258 7.69938C23.4153 7.87898 23.2084 8.05883 22.8978 8.18714C22.7425 8.11013 22.3286 8.11013 21.9922 8.23843C21.6559 8.34115 21.1384 8.57218 20.6468 9.23966C20.3364 10.3436 26.1319 9.52198 26.1319 9.52198L28.3829 9.00877Z" fill="#010101"/>
<path d="M28.4345 9.00875C27.6064 8.72631 27.7359 7.77651 25.8988 7.62249C25.5366 7.59678 25.3037 7.8791 25.045 8.05883C25.1744 8.18726 25.3037 8.39257 25.3813 8.59788C25.1485 8.34127 24.7345 8.0074 24.3204 7.9304C23.9324 7.85351 23.6736 8.13583 23.2597 8.34127C23.3371 8.41815 23.4149 8.54658 23.5183 8.70072C23.156 8.4697 22.8974 8.39269 22.4058 8.57229C22.0694 8.67489 21.4226 8.95733 20.931 9.65053C20.6206 10.7545 26.1575 9.5221 26.1575 9.5221L28.4345 9.00875Z" fill="#8AC640"/>
<path d="M33.2987 9.41951C33.2987 9.41951 33.2987 9.13706 33.2728 8.88045C33.2728 8.82915 33.0659 8.70072 33.0659 8.64942L33.0142 8.598C33.0142 8.598 33.4281 8.36697 33.7386 8.49541C34.0748 8.598 34.256 9.03447 34.256 9.03447C34.8511 8.82915 34.9028 9.06018 35.1874 9.36821C35.8084 9.23978 35.8859 9.47081 36.2741 10.0357C36.2741 10.0357 35.8084 9.95869 34.9029 10.1126C34.0231 10.2409 33.2987 9.3938 33.2987 9.41951V9.41951Z" fill="#010101"/>
<path d="M33.1954 9.29122C33.1954 9.29122 33.3506 9.16279 33.2988 9.13708C33.5833 8.98306 33.9715 8.80346 34.1527 9.29122C34.7478 9.08578 34.8254 9.36823 35.1099 9.67639C35.8343 9.34265 35.886 9.75327 35.9379 9.933C35.705 9.933 35.3688 9.95871 34.903 10.01C34.0233 10.1384 33.1695 9.26551 33.1954 9.29122Z" fill="#8AC640"/>
<path d="M24.3987 8.64941C24.3987 8.64941 25.8735 9.16276 27.1154 9.08575C28.3573 8.98316 30.4789 8.88044 31.6173 9.54793C31.6173 9.54793 32.7816 9.13705 33.8683 9.4195C34.9551 9.70182 36.9472 11.5503 36.3522 13.5013C36.3004 13.6297 35.9641 13.8351 35.576 13.9635C35.576 13.9635 35.783 14.8363 35.4208 15.5551C35.0585 16.2483 34.2565 17.5832 34.2305 19.4316C34.2048 19.7396 34.1531 20.3814 34.1012 20.6894C32.0831 20.6125 28.9783 19.8679 25.9253 19.9193C25.9511 19.5857 25.977 19.3803 26.0029 19.0465H26.0804C25.9251 18.1993 25.8735 17.7628 25.7181 17.1211C24.7349 16.505 23.6999 15.7862 22.8204 14.4255C21.9665 13.0648 24.3987 8.64941 24.3987 8.64941V8.64941ZM34.3858 22.5123C34.3858 22.5123 35.99 28.2115 34.1012 30.599C34.1012 30.599 34.3858 31.7028 33.739 32.8838C33.6354 33.3972 33.506 33.8593 33.4285 34.3727C33.0922 36.5034 32.5228 37.402 32.3676 40.8163L30.8151 40.7907C30.8151 40.7907 30.634 38.3262 30.0907 37.0169C29.7804 36.2725 28.5641 35.2712 28.616 34.2701C28.6677 33.4999 28.823 32.8581 30.1426 31.8312C30.246 30.3423 28.7454 28.9302 28.9783 23.3851L34.3858 22.5123Z" fill="#010101"/>
<path d="M33.9199 22.2811C34.3339 24.8996 35.2912 28.7761 33.5577 30.6757C33.66 31.1574 33.6687 31.6541 33.5835 32.139C33.5318 32.4471 33.4282 32.7808 33.2989 33.1401C33.0402 33.7563 32.9366 34.6548 32.859 35.1939C32.5227 37.3247 32.5227 37.4275 32.3674 40.8418L30.815 40.8161C30.815 40.8161 30.6338 38.3516 30.0905 37.0425C29.7802 36.298 29.1333 35.6562 29.0816 34.655C29.0299 33.8849 29.5732 32.3446 30.8669 32.3959C30.7893 29.2896 29.3403 29.9057 28.9523 23.4364L33.9199 22.2811ZM24.3986 8.64941C24.3986 8.64941 24.9678 8.82914 25.5887 8.88044C26.2097 8.93174 26.8824 8.88044 27.4774 8.85473C28.7193 8.75213 30.4787 8.6237 31.643 9.29119C31.643 9.29119 32.2898 9.08575 32.9885 9.13705C33.2989 9.16276 33.6095 9.4195 33.9716 9.52221C35.11 9.80454 36.1967 11.6786 35.705 13.373C35.6533 13.5014 35.291 13.373 34.8771 13.5014C34.9546 13.8609 35.0065 14.6824 34.5924 15.5552C34.1526 16.4281 33.5835 17.5576 33.6869 19.7141C30.9702 19.5857 29.7542 19.4061 27.0633 19.2777C26.8305 18.3277 26.6751 17.3779 26.6493 16.8902C27.0116 16.7104 27.2184 16.5565 27.5032 16.2484C26.7271 16.3768 26.4165 16.3254 25.9507 16.0687C25.485 15.8119 24.6571 14.9904 24.2431 14.4514C24.1914 14.3999 23.9069 15.247 23.26 15.2729C23.0271 14.9391 24.0103 13.9892 23.8291 13.6299C23.1824 12.3205 24.3986 8.64941 24.3986 8.64941V8.64941Z" fill="#F0EFEF"/>
<path d="M34.1265 20.1503C34.1265 20.1503 34.1782 21.0745 34.1782 21.3055C34.1782 21.5623 34.3852 22.3323 34.411 22.6918C34.1265 23.1795 32.8846 24.2835 30.6336 24.6942C28.4085 25.1563 25.459 21.6907 25.459 21.6907C25.5366 21.357 25.7953 20.3813 25.9765 19.868C26.0024 19.8167 26.0541 19.6882 26.0541 19.637C26.2871 19.3032 34.1265 20.1503 34.1265 20.1503V20.1503Z" fill="#010101"/>
<path d="M33.5577 20.2275C33.5577 20.8693 33.6611 21.3314 33.7388 21.7422C33.8681 22.4867 34.075 22.9744 34.075 23.4622C34.075 24.9511 32.1087 24.6943 30.4527 24.7458C28.2276 25.2079 26.3389 21.7422 26.3389 21.7422C26.4941 21.1517 26.5976 20.4843 26.8305 19.9194C26.8562 19.6114 26.9081 19.2264 26.9338 19.0466C30.0904 19.0466 32.3155 19.2264 33.6092 19.3545C33.6611 19.637 33.6094 20.1248 33.5577 20.2275Z" fill="#F0EFEF"/>
<path d="M31.0738 23.539C31.0738 23.539 29.7025 20.5097 25.5886 21.4083C24.6056 24.1551 23.2859 27.3129 24.1398 30.7272C23.2859 31.8824 22.3027 32.5243 22.3027 34.655C22.3027 36.7857 22.4063 37.1452 22.4063 37.1452L25.4334 37.2993C25.4334 37.2993 26.4165 36.0415 26.8046 34.6808C26.9081 34.2956 27.0117 33.6026 26.934 32.8068C27.0374 32.6528 27.4773 32.2934 27.5292 31.6002C27.5292 31.6002 29.0039 30.8301 29.8578 28.9561C30.6599 27.2614 30.4529 25.7982 31.0738 23.539Z" fill="#010101"/>
<path d="M31.0734 23.5391C30.9959 23.2567 29.961 20.4842 26.1317 21.3056C23.8808 27.2615 24.7087 29.726 25.045 30.8041C23.5184 32.7295 22.8199 33.1402 23.1305 37.0424H25.1486C26.08 35.5791 26.287 35.0399 26.3387 33.1146C26.3387 33.0376 26.0542 33.2686 25.8471 33.5254C26.0025 32.7296 26.4423 32.5756 26.7786 32.0878C26.9338 31.8824 27.0631 31.5743 27.0631 31.1636C28.8743 29.957 29.547 28.4423 29.935 26.8764C30.2456 25.7982 30.6078 24.0268 31.0734 23.5391V23.5391Z" fill="#F0EFEF"/>
<path d="M24.683 19.406C24.683 19.406 25.3816 19.4316 26.0026 19.637C26.5977 19.8423 26.5977 19.9706 26.8306 20.2275C27.0634 20.4844 27.6326 20.8693 27.5292 21.2543C27.4774 21.4598 27.3481 21.5111 27.1669 21.6908C27.0893 21.7678 26.52 22.3839 26.3907 22.4609C26.3131 22.5122 26.2095 22.5893 26.1319 22.6406L25.7439 22.8973C25.4851 23.0258 25.304 23.1028 25.0195 23.0771C25.0195 23.0771 24.3726 23.0513 23.9585 22.615C23.9585 22.615 23.9069 22.4096 24.0104 22.307C24.0104 22.307 23.467 21.8448 23.3117 21.5368C23.1564 21.2289 23.1564 20.7924 23.26 20.5614C23.3117 20.3301 24.3207 19.6883 24.683 19.406V19.406ZM25.3299 44.3847L25.2523 45.0266C25.2523 45.0266 25.0195 45.3089 23.286 45.2833C21.5265 45.2576 21.0609 44.7186 20.9056 44.4361L20.8022 43.7686C20.8022 43.7686 21.1386 43.2809 21.2162 43.2809C21.7854 43.3322 23.726 44.1024 25.0714 44.3077C25.2005 44.3077 25.2263 44.359 25.3299 44.3847ZM29.0814 43.0754C29.0814 43.3578 29.0555 43.3578 29.0555 43.6402C29.366 43.8712 30.1424 43.9997 31.617 43.9738C33.7645 43.9225 35.7567 44.6157 38.1887 44.2048L38.2146 43.7428L37.9818 43.7172L29.366 43.024L29.0814 43.0754Z" fill="#010101"/>
<path d="M30.9703 43.974H31.6172C33.0144 43.9227 34.334 44.2307 35.7569 44.3077C36.5072 44.282 37.4387 44.1023 37.3611 43.5632L30.0131 42.947C29.5732 43.4348 29.9094 43.8455 30.9703 43.974V43.974ZM22.5357 33.1661C22.7685 33.3201 24.3468 34.2443 26.9082 34.1159C26.8564 34.6037 26.8823 35.5536 25.7439 37.2222C25.1747 38.0437 24.683 39.4814 24.5796 41.3041C24.6055 41.7149 24.8384 42.0742 24.5279 42.6134C24.6313 42.947 25.0453 43.6145 25.2523 44.0253C25.4593 44.4361 25.5628 44.8982 24.1914 44.9239C22.7943 44.9495 20.5433 44.7955 20.8539 43.7174C21.0092 43.1526 21.449 42.5621 21.5008 42.331C21.5525 42.0999 21.5525 41.4069 21.9923 40.9447C22.3804 39.6611 22.251 38.4289 22.1735 37.2736C22.0441 36.067 22.0182 34.1416 22.5357 33.1661V33.1661ZM24.9419 12.2435C26.7789 9.80453 25.2264 7.85362 22.277 8.44397C21.0868 8.675 19.8967 9.49663 19.819 10.9855C19.4309 11.0368 18.5513 11.0881 18.1114 12.6798C17.7752 13.9121 17.594 14.1431 16.9988 14.7591C16.6107 15.1956 17.0247 16.0941 17.3092 16.736C18.2666 18.9438 21.2161 19.1491 23.2084 20.8178C23.8811 20.6381 24.5796 19.8937 24.7867 19.406C23.1049 17.4291 23.467 16.659 22.7943 15.6322C23.5188 15.3753 25.1747 14.3742 24.9419 12.2435Z" fill="#010101"/>
<path d="M24.5795 12.0894C24.6829 11.9353 24.864 11.6017 24.9418 11.4732C24.9677 11.4475 25.2522 11.9353 25.2781 11.9097C25.9767 10.78 26.1578 9.13704 25.3556 8.98302C25.1745 8.95731 24.8383 8.88043 24.5536 8.77758C24.0362 8.59785 23.5706 8.59785 22.7425 8.752C21.6041 8.95731 20.4657 9.77881 20.4657 10.9598C20.4657 11.0368 21.2676 11.2678 21.5006 12.2177C21.1124 11.6786 20.4397 11.0881 19.6376 11.6015C18.7838 12.1406 19.2237 13.3729 18.0853 14.6564C17.6971 15.0929 17.7489 15.6063 18.1627 16.6332C18.8355 18.2506 22.0179 19.1234 23.7514 20.6637C24.1654 20.4839 24.4499 20.0732 24.657 19.7652C23.4927 18.5586 23.0269 17.429 22.6907 16.6075C22.2767 15.6576 21.8109 15.1186 20.9053 14.3996C21.3711 14.5793 21.7334 14.759 21.9402 14.913C22.173 15.067 22.5094 15.0927 22.82 14.99C23.9327 14.6052 24.5278 13.0648 24.5795 12.0894Z" fill="#F0EFEF"/>
<path d="M35.8346 12.5001C35.757 13.4756 35.0325 12.9879 34.6445 12.8081C33.8682 12.4744 33.092 12.2434 32.1864 12.2434C31.2809 12.2434 30.1166 12.3204 29.1076 12.5771C27.7105 12.9621 27.2964 12.9366 26.6755 12.6284C26.0546 12.2947 24.968 11.4731 24.968 11.4731C24.968 11.4731 24.9421 11.7299 25.2008 12.0636C25.5371 12.4744 26.2875 12.9879 27.2965 13.3215C27.7881 13.4756 28.1763 13.3728 28.6161 13.2702C30.9188 12.7054 33.3509 12.6027 35.3948 13.835C35.4983 13.8863 35.8606 13.7322 36.0158 13.5012C36.2226 13.1676 35.8346 12.5001 35.8346 12.5001V12.5001Z" fill="#010101"/>
<path d="M24.062 22.281C24.2689 22.4094 24.5277 22.4864 24.8122 22.7175C24.8122 22.7175 24.5794 22.7175 24.476 22.6149C24.3465 22.5379 24.0878 22.3068 24.062 22.281V22.281Z" fill="#0A1825"/>
<path d="M31.5396 1.9234C31.462 1.69237 30.8927 1.28149 29.5733 1.28149C28.1503 1.28149 27.7363 1.71796 27.7105 1.94898C27.7105 2.02599 27.607 2.84762 27.5811 3.18124C27.5811 3.18124 27.5811 3.59199 27.6068 4.20806C27.6328 4.61881 27.7363 4.84983 27.788 5.38902C27.8397 5.95366 27.995 6.31311 28.2796 6.77529C28.409 6.85217 28.5124 6.9293 28.6418 6.95502C29.1593 7.05761 30.0649 7.08332 30.5565 6.95502C30.841 6.87801 31.2033 6.39025 31.2809 5.95378C31.3843 5.41473 31.4878 5.02956 31.5137 4.69594C31.5654 4.36232 31.5913 3.6177 31.6171 3.41226C31.6949 2.84762 31.5654 1.97469 31.5396 1.9234V1.9234Z" fill="#F0EFEF"/>
<path d="M28.8228 33.6538C28.8228 33.6538 30.1941 34.2443 33.5835 33.7308C33.5835 33.7308 32.6263 38.5058 33.0662 40.8932C33.0662 40.8932 33.5059 41.5094 36.766 42.6902C36.766 42.6902 38.2148 43.0497 38.1631 43.7686C38.1631 43.7686 38.2148 43.9226 36.4556 43.8712C34.6963 43.8198 33.0403 43.5117 31.8759 43.5117C30.7116 43.5117 29.4697 43.563 29.2628 43.2294C29.03 42.9214 29.3145 42.1255 29.6509 41.6633C30.0133 41.1757 29.9096 40.8161 29.8838 39.9434C29.806 37.6586 28.0465 35.2968 28.8228 33.6538V33.6538Z" fill="#010101"/>
<path d="M28.5382 34.0904C28.3571 34.3471 28.564 35.3225 28.8228 36.2724C29.0815 37.2223 29.6508 37.7871 29.7802 39.353C29.9095 40.8933 29.9354 41.0988 29.4955 41.9972C29.0556 42.8956 28.9263 43.7172 30.4527 43.7429C31.9792 43.7686 32.8073 43.7172 34.3596 43.9483C35.9121 44.1794 36.4554 44.2564 37.3093 44.1281C38.1631 43.9998 38.3441 43.7172 37.982 43.4606C37.6197 43.2038 36.1191 42.9215 35.4722 42.4079C34.8512 41.9459 33.0919 41.1757 33.0662 40.9703C32.9885 40.2771 32.9626 37.7613 33.0919 36.9398C33.2214 36.1182 33.4024 34.9373 33.4542 34.6293C33.506 34.3213 33.7647 34.0131 33.3248 34.1158C32.885 34.2184 31.2291 34.4496 29.9872 34.3726C28.7453 34.2957 28.616 34.0132 28.5382 34.0904V34.0904Z" fill="#8AC640"/>
<path opacity="0.3" d="M29.4178 42.023C29.8575 42.2283 30.5045 42.3825 30.9961 42.3825C30.9961 42.3825 30.8148 43.2297 31.0995 43.7431C31.384 44.2565 29.0296 43.9485 29.0296 43.9485L28.9262 42.1258L29.4178 42.023ZM36.2742 44.2308C36.6881 44.1024 36.9728 43.6403 36.6364 43.204C36.2742 42.7675 35.9637 42.6905 36.4294 42.6649C36.8952 42.6392 38.6028 43.666 38.6028 43.666L37.723 44.4618L36.2742 44.2308ZM28.4604 35.0915C29.0555 35.2969 29.9611 35.3482 30.7373 35.3225C31.5134 35.2969 32.6777 35.1941 33.4282 34.9375C34.1784 34.6807 33.868 35.2198 33.868 35.2198L33.454 35.605C33.454 35.605 32.4708 35.99 30.8667 35.9644C28.978 35.9387 28.4087 35.7334 28.4087 35.7334L28.4604 35.0915ZM28.5121 36.3752C29.1073 36.5806 30.0128 36.6319 30.789 36.6062C31.5651 36.5806 32.6001 36.5806 33.3505 36.2982C33.6609 36.1956 33.4799 36.6319 33.4799 36.6319L33.3505 36.863C33.3505 36.863 32.3414 37.2224 30.7631 37.1966C28.8744 37.171 28.538 37.0168 28.538 37.0168L28.5121 36.3752Z" fill="#010101"/>
<path d="M26.8047 18.3792C26.8047 18.5589 28.8229 19.56 29.9353 19.7654C31.0479 19.9707 33.3766 19.7654 33.7387 19.6884L33.6869 20.0479C33.6869 20.0479 30.9185 20.4586 28.7969 19.8938C26.6753 19.3291 26.9082 19.2007 26.9082 19.2007L26.8047 18.3792Z" fill="#010101"/>
<path d="M22.4839 40.2772C22.7944 40.4314 23.907 40.7137 24.6314 40.5597C24.7348 40.534 24.6314 38.7882 24.916 37.9925C25.33 36.8885 26.0027 35.99 26.3131 34.0391C25.2264 33.9364 23.9846 33.6539 23.3376 33.4485C22.5098 35.9644 22.7945 38.1208 22.4839 40.2772V40.2772ZM24.2175 41.8947C24.3987 41.9459 24.528 42.1513 24.5798 42.0231C24.6832 41.7919 24.3987 41.3556 24.3728 41.0476V41.0219C24.1399 40.8165 22.5616 40.7908 22.6652 40.8934C22.484 41.2272 22.1995 41.1759 22.0961 41.8434C22.0444 42.177 22.4584 41.8947 22.8463 41.8689C22.1478 42.331 21.3458 42.9216 21.2163 43.4349C21.0611 44.1537 21.3199 44.3592 22.0961 44.7443C22.7688 44.8983 23.5709 44.9241 24.1918 44.8983C24.8904 44.7699 25.0198 44.4363 24.8128 43.9741C24.5021 43.2809 24.2952 42.3824 24.2175 41.8947V41.8947Z" fill="#F0EFEF"/>
<path d="M24.5021 8.54663C25.3559 9.03439 26.5461 8.90609 26.9859 8.88037C27.0894 8.88037 28.1244 8.70065 28.1761 8.72623C28.2795 8.75194 28.2795 8.82895 28.2795 8.82895C28.2795 8.82895 27.8915 9.03426 27.0118 9.08556C26.1839 9.13686 25.2007 9.08556 24.6574 8.82895C24.0105 8.54663 24.5021 8.54663 24.5021 8.54663ZM33.299 9.03439C33.4542 9.13698 34.4633 9.52215 34.9032 9.9842C35.2913 10.3951 35.0843 10.3694 35.0066 10.2666C34.9032 10.1382 34.101 9.59916 33.7906 9.47085C33.4802 9.34255 33.092 9.1114 33.092 9.0601C33.092 9.00881 33.299 9.03439 33.299 9.03439V9.03439Z" fill="#010101"/>
<path d="M24.3725 19.6883C25.1228 19.637 25.8991 19.8168 26.3907 20.3301C26.6494 20.5869 27.0634 20.8692 27.0117 21.1259C27.0117 21.2029 26.8563 21.4084 26.7272 21.5624C26.6496 21.665 26.4167 21.896 26.339 21.9731C26.2356 22.0501 25.8733 22.3326 25.7957 22.3839C25.7181 22.4353 25.6146 22.5637 25.5369 22.5893C25.2783 22.7178 24.9937 22.615 24.7349 22.4867C24.4763 22.3583 24.7867 22.3326 24.5021 22.1273C23.8036 21.6395 23.4154 21.3056 23.7 20.3558C23.7258 20.1761 24.0104 19.9707 24.3725 19.6883V19.6883Z" fill="#F0EFEF"/>
<path opacity="0.4" d="M17.7747 13.8094C15.4461 14.7336 9.52103 17.6603 7.83936 18.5588C9.23649 19.4316 9.8833 21.5367 10.0903 23.6675C10.1161 23.8729 10.142 24.0526 10.168 24.2579C10.1937 24.4377 10.2197 24.566 10.2454 24.6431C10.2454 24.6688 10.2454 24.7201 10.2714 24.7457C11.7979 20.6126 17.257 16.2483 17.4641 15.9146C17.5675 15.7606 17.3347 15.0931 17.6969 14.4514C18.1627 13.6297 19.0684 13.2702 17.7747 13.8094V13.8094ZM23.3115 33.1918C24.5016 30.83 24.5275 28.5708 24.5016 25.9265C24.5016 24.8226 25.3036 23.2566 24.8898 23.693C23.3373 25.4129 19.4306 28.6478 16.6104 28.8274C20.5689 28.6991 22.1213 30.6758 23.3115 33.1918Z" fill="#010101"/>
<path d="M5.5625 20.7408C7.03725 19.6883 14.6699 15.6579 16.5069 15.093C18.3438 14.5025 17.7746 13.8093 17.7746 13.8093C17.7746 13.8093 10.3231 16.9926 5.87295 19.7396" fill="#010101"/>
<path opacity="0.4" d="M27.296 13.3218C26.7008 13.0908 26.2352 13.784 26.3904 14.4515C26.5457 15.1189 27.9429 15.8633 27.8651 18.3022C27.8134 20.3047 27.3736 21.1261 27.3736 21.1261L26.3904 19.8939C26.3904 19.8939 26.2352 17.1213 25.8988 16.7105C25.5626 16.2998 24.5017 15.5553 24.0877 15.1702C23.6737 14.7851 24.5534 14.2717 24.5017 13.5528C24.45 12.8597 24.9416 11.4735 24.9416 11.4735L27.296 13.3218ZM30.8924 24.2579C30.8407 26.1833 31.2806 29.0329 31.4616 30.3936C31.6427 31.7542 31.8756 31.8569 31.4616 32.4731C31.0476 33.0636 30.5043 34.0391 30.5043 34.0391L28.719 33.885C28.719 33.885 30.1421 32.0879 30.2195 31.7542C30.2972 31.4206 29.4951 28.8791 29.4951 28.8791L30.8924 24.2579ZM27.4513 6.28771C27.8136 7.08338 28.2533 7.44284 28.9518 7.67399C29.3658 7.828 30.9958 8.03344 31.6427 7.31453C31.9273 6.98079 31.7461 6.08228 31.7461 6.08228L30.2714 7.26311L28.2791 6.90378L28.0463 6.3133L27.4513 6.28771Z" fill="#010101"/>
<path d="M27.6068 8.05884C28.2795 8.4953 29.9614 8.90606 30.427 8.98306C30.8927 9.08566 31.643 8.4953 32.0053 8.34129C32.3935 8.16156 33.0662 8.05884 33.8423 8.75204C33.9199 8.82905 33.6612 9.16279 33.6612 9.16279C33.6353 9.13708 33.4801 9.13708 33.273 9.03436C33.0661 8.93177 32.8849 8.85463 32.5745 8.88034C31.2808 9.03436 31.0738 9.47083 29.9354 9.21396C28.797 8.9571 28.5124 8.75191 27.3999 8.80321" fill="#8AC640"/>
<path d="M27.6068 8.05884C28.2795 8.4953 29.9614 8.90606 30.427 8.98306C30.8927 9.08566 31.643 8.4953 32.0053 8.34129C32.3935 8.16156 33.0662 8.05884 33.8423 8.75204C33.9199 8.82905 33.6612 9.16279 33.6612 9.16279C33.6353 9.13708 33.4801 9.13708 33.273 9.03436C33.0661 8.93177 32.8849 8.85463 32.5745 8.88034C31.2808 9.03436 31.0738 9.47083 29.9354 9.21396C28.797 8.9571 28.5124 8.75191 27.3999 8.80321" stroke="#010101" stroke-width="0.5" stroke-miterlimit="10" stroke-linejoin="round"/>
<path d="M27.3737 8.13599C28.2276 8.49544 29.8835 8.88048 30.3491 8.98319C30.8148 9.08591 31.5651 8.62374 31.9274 8.39272C32.5743 7.98197 33.4022 8.31571 33.7903 8.75217C34.049 9.03449 34.1526 9.21422 34.1526 9.29122C34.1526 9.39382 33.8422 9.29122 33.8422 9.29122C33.661 9.21422 33.454 9.18863 33.2989 9.08579C33.0918 8.98319 32.8848 8.82918 32.5745 8.85476C31.2807 9.0089 31.022 9.44524 29.9095 9.1885C28.797 8.93177 28.5124 8.70075 27.3223 8.77763" fill="#8AC640"/>
<path d="M23.3634 32.1134C23.3117 32.0621 23.4151 32.0108 23.3634 32.0108C23.0272 32.0108 22.5614 31.7541 22.3025 31.3946C21.19 29.803 19.5599 28.7505 16.6104 28.8275C12.186 28.9301 10.4266 27.1332 10.0904 23.6932C9.90926 21.8192 9.39176 19.9964 8.33098 18.9695L7.70996 19.3546C8.90005 20.3815 9.28824 22.0502 9.54699 24.335C9.96096 27.775 12.7552 29.3667 16.0153 29.418C19.4047 29.4693 20.6207 30.1625 21.8884 31.8569C22.3024 32.396 22.7682 32.5757 23.1303 32.6527L23.3634 32.1134Z" fill="#010101"/>
<path opacity="0.4" d="M35.3685 15.6064C35.4461 15.9915 35.653 16.736 36.067 17.0953C36.2483 17.2751 36.2741 17.3263 36.1188 17.3263C35.9635 17.3263 34.8251 17.275 34.8251 17.275L34.5146 16.736L35.3685 15.6064Z" fill="#010101"/>
</svg>
