<svg width="42" height="48" viewBox="0 0 42 48" fill="none" xmlns="http://www.w3.org/2000/svg">
<path d="M6.61679 21.1337C5.25047 21.7764 1.63418 24.6697 0.937668 25.5269C0.21433 26.3841 9.02296e-05 25.0448 0.750126 22.8213C1.33932 21.0265 2.83965 18.5888 5.35766 16.4994C6.8309 15.2939 10.0724 13.5528 12.0546 12.5347C12.4565 12.3203 17.6534 10.1237 22.2877 9.02545C22.6896 8.91827 21.8056 9.69513 21.6716 10.1237C20.9751 12.1596 7.07197 20.8925 7.07197 20.8925L6.61679 21.1337ZM26.1987 45.6983C26.4398 47.1448 26.2256 47.252 24.7255 47.4395C23.2253 47.6271 22.127 47.0645 21.7252 46.6895C21.3233 46.3143 21.2431 45.484 21.6449 44.734C21.8861 44.2517 22.1271 44.091 22.2611 43.5017C22.395 42.9392 22.5022 42.8052 22.6093 42.591C22.7163 42.4033 22.7433 42.2157 22.77 40.9032C22.7968 39.5907 22.77 37.1261 22.904 36.0814C23.038 35.01 27.6724 36.5636 27.6724 36.5636C27.6724 36.5636 26.5739 39.2959 26.2794 39.9656C25.9846 40.6354 26.0115 41.9211 26.0115 42.189C26.0115 42.4569 25.9044 42.9926 25.8239 43.0194C25.7436 43.0461 26.0918 43.7426 25.931 44.1445C25.8238 44.5196 26.172 45.484 26.1987 45.6983ZM27.9668 4.73935C27.806 3.72142 27.9668 1.71211 28.1811 1.39082C28.8509 0.479942 32.3868 0.372888 33.137 1.44435C33.4584 1.92649 33.4316 3.0516 33.3781 3.77494C33.3245 4.49815 33.137 6.05188 33.1102 6.56098C33.0835 6.93606 29.1991 7.52525 28.3419 6.50732C28.1007 6.23955 27.9668 4.73935 27.9668 4.73935ZM35.8425 43.0998C37.4766 44.2786 38.7356 44.4928 39.566 44.9214C40.3964 45.3502 40.1822 46.1805 38.7892 46.4216C37.664 46.6359 35.8961 46.2072 34.7174 46.2072C33.5388 46.2072 30.9135 46.3413 30.2169 45.8591C29.4134 45.2966 29.7615 44.2517 29.7615 44.2517C29.9759 43.6625 30.5115 42.3497 30.3508 41.2783C30.1901 40.2068 29.9757 39.6175 29.574 38.6263C29.1722 37.6352 28.8776 35.1975 29.2527 35.0635C29.6278 34.9295 29.5204 35.0635 30.0027 35.1706C30.4848 35.2776 31.0206 35.4385 32.0654 35.4385C33.1102 35.4385 34.262 35.2776 34.6639 35.1974C35.0657 35.117 35.3871 35.0365 35.2531 35.8671C35.1192 36.6975 34.7174 38.2512 34.6906 39.4567C34.6639 40.6621 34.6639 42.0552 34.7443 42.2962C34.8245 42.5373 35.4139 42.8052 35.8425 43.0998Z" fill="#010101"/>
<path d="M30.1096 7.41816C27.163 9.96312 21.457 10.6595 12.9921 13.9277C10.8223 14.7581 5.03608 17.2494 3.64307 19.8479C8.33095 17.1423 10.0722 20.8658 10.4472 24.6965C10.7953 28.286 12.5902 30.1613 17.1978 30.054C21.9393 29.947 23.3858 32.706 24.6984 35.9475C27.2432 23.5445 31.3151 21.1337 33.9401 19.0175C39.5122 14.4902 32.6544 6.50728 30.1096 7.41816Z" fill="#8AC640"/>
<path d="M30.1098 7.41821C23.0377 9.88269 16.0459 10.4988 7.82211 15.5618C5.86659 16.7673 1.7412 19.4995 0.9375 24.7234C3.93765 21.4015 10.8758 17.2227 19.3676 14.5707C23.6538 13.2312 26.7881 12.3473 30.5919 10.8739C30.3241 9.15936 30.3241 8.48967 30.1098 7.41821V7.41821Z" fill="#8AC640"/>
<path d="M39.1371 22.098C39.1371 22.098 38.6281 23.8393 37.6102 24.4019C37.6102 24.4019 36.8602 24.6698 35.3601 23.8394C34.9315 23.5984 34.6101 22.768 34.6368 22.4999C34.6636 21.857 35.0654 21.5624 35.0654 21.5624C35.0654 21.5624 35.4941 20.839 36.003 20.8659C36.5121 20.8926 37.3693 20.9729 37.6372 20.7318C37.8781 20.4639 39.1908 21.214 39.1371 22.098V22.098ZM28.2076 5.24835C28.2076 5.24835 28.1006 6.61467 27.913 7.47176C27.8862 7.6326 27.0826 7.71283 26.4932 7.95403C27.6183 11.1685 34.3957 11.1417 35.2798 9.56128C34.8511 9.26669 33.9939 8.81125 33.5921 8.65054C33.1902 8.48969 33.2171 8.51652 33.1902 7.76649C33.1635 7.01632 33.1099 5.62344 33.0562 5.24835C33.0027 4.87327 28.8505 4.87327 28.2076 5.24835Z" fill="#010101"/>
<path d="M28.4756 5.2484C28.4756 5.2484 28.4756 6.02527 28.3952 6.77531C28.3685 7.12356 28.3417 7.3378 28.2882 7.6057C28.2613 7.76654 29.1989 8.40927 29.4668 9.82912C30.7526 12.6954 33.7262 11.2757 34.9583 9.90947C34.5297 9.61474 33.8332 9.21296 33.0297 8.89154C32.6278 8.73069 32.8153 8.38257 32.7886 7.63253C32.7618 6.88249 32.6546 5.78407 32.6011 5.38228C32.5473 4.9805 29.1185 4.87332 28.4756 5.2484V5.2484Z" fill="#F0EFEF"/>
<path d="M28.2076 5.24835C28.2076 5.24835 28.1808 5.73063 28.1006 6.29312C28.4487 6.64124 28.9041 7.12352 29.2525 7.41824C29.4936 7.63262 30.0828 7.60579 30.6187 7.60579C31.1009 7.60579 31.5295 7.65931 31.717 7.55226C32.1458 7.33789 32.7618 6.80222 33.11 6.40031C33.0833 5.91817 33.0565 5.46273 33.0298 5.24835C33.0027 4.87327 28.8505 4.87327 28.2076 5.24835V5.24835Z" fill="#010101"/>
<path d="M30.6457 7.28414C30.3241 7.28414 29.949 7.25745 29.6545 7.20379C29.5204 7.17709 29.3866 7.09673 29.2794 7.04308C29.0918 6.90906 28.9043 6.74848 28.6902 6.58764C28.2614 6.26621 28.2347 6.07867 28.2347 5.99844C28.4223 4.3107 28.1811 2.89099 28.1811 2.89099C28.1811 2.89099 27.9935 2.16765 29.0115 1.98011C30.0294 1.79257 30.6456 1.76587 30.6456 1.76587C30.6456 1.76587 31.2885 1.76587 32.2796 1.98011C33.2976 2.16765 33.11 2.89099 33.11 2.89099C33.11 2.89099 32.869 4.3107 33.0565 5.99844C33.0565 6.07867 33.0298 6.26621 32.6011 6.58764C32.226 6.85553 31.9314 7.15013 31.6368 7.20379C31.3421 7.25745 30.967 7.28414 30.6457 7.28414V7.28414Z" fill="#010101"/>
<path d="M30.6454 1.06934C28.8775 1.06934 28.5291 1.55147 28.0201 2.08727C27.9131 2.22115 27.9933 3.02485 28.181 4.73929H28.422C28.422 4.73929 28.2612 4.25702 28.288 3.69453C28.3149 3.13203 28.422 3.15886 28.3415 3.02485C28.2345 2.864 28.0201 2.59611 28.5024 2.32834C28.9845 2.06044 29.7346 2.54258 30.6454 2.56941C31.5562 2.54258 32.3331 2.06044 32.8152 2.32834C33.2973 2.59611 33.0831 2.864 32.976 3.02485C32.8689 3.18556 33.0027 3.1319 33.0296 3.69453C33.0563 4.25702 32.8956 4.73929 32.8956 4.73929H33.1366C33.2973 3.02485 33.4045 2.27481 33.3242 2.1408C32.8687 1.55147 32.4134 1.09603 30.6454 1.06934V1.06934ZM39.1372 22.1783C39.1372 22.1783 38.6282 23.8124 37.6371 24.3749C37.4227 24.2679 37.4496 24.1071 37.262 23.8659C37.2084 23.7857 37.0208 23.7319 36.9406 23.6517C36.8602 23.5713 36.8871 23.4373 36.7531 23.3303C36.6459 23.2231 36.5655 23.3034 36.4583 23.2231C36.3513 23.116 36.3243 22.982 36.2441 22.9018C36.1904 22.8481 35.9762 22.8214 35.9227 22.7678C35.7886 22.6338 34.6101 22.3927 34.6637 22.1248C34.7707 21.7229 34.9851 21.4283 34.9851 21.4283C34.9851 21.4283 35.494 20.6783 36.0029 20.7049C36.5119 20.7318 36.9941 20.839 37.262 20.5979C37.5567 20.3299 39.2177 21.3211 39.1372 22.1783Z" fill="#010101"/>
<path d="M35.6549 10.3381C35.6549 10.3381 37.3425 9.93621 38.4944 11.0346C39.6464 12.1597 39.5659 13.5526 39.2178 14.4098C39.5123 14.7581 40.0481 15.7224 39.6464 16.8743C41.4143 18.3744 40.6375 20.6783 39.057 22.2052C39.057 22.2052 38.682 20.8122 37.1819 20.7318C37.2354 20.1961 35.7889 19.7674 36.4585 18.3744C35.4406 18.1333 35.4674 17.4368 35.3067 16.5797C35.1727 15.7224 35.6549 10.3381 35.6549 10.3381V10.3381Z" fill="#010101"/>
<path d="M35.0387 11.0881C35.0387 11.0881 36.9942 10.097 38.1462 11.2221C39.298 12.3473 38.9764 13.5794 38.6283 14.4367C38.9229 14.7848 39.6194 15.7761 39.1908 16.9547C39.1104 17.2225 38.5211 17.2225 38.0924 17.9191C39.1638 17.3028 39.8336 17.4636 40.0747 18.2403C40.4498 19.4458 39.6193 20.8924 38.8961 21.6961C38.8961 21.6692 38.8692 21.6424 38.8692 21.6157C38.7622 22.0176 38.6282 22.7943 37.8246 23.6516C37.4227 24.0802 37.1013 24.0267 36.6458 23.9195C36.1102 23.7855 35.9226 23.5443 35.1726 23.1426C34.744 22.9015 34.985 22.6068 34.985 22.3657C34.985 22.3122 35.0386 22.2317 35.1191 22.1247C35.1726 21.9907 35.3333 21.7765 35.5744 21.5353C35.5744 21.5353 35.9226 21.0532 36.4317 21.0799C36.9407 21.1067 37.4763 20.9997 37.6104 20.8657C37.6104 19.9281 36.5389 19.9013 36.9139 18.294C36.9407 18.2137 37.0747 18.0796 37.5032 18.0261C36.8602 17.8921 36.5656 17.8653 36.1102 17.4368C35.7887 17.1422 35.5477 16.7671 35.4672 16.285C35.3066 15.4546 35.0387 11.0881 35.0387 11.0881V11.0881Z" fill="#F0EFEF"/>
<path d="M29.3863 9.40046C29.2256 9.18609 28.3952 8.11463 26.8146 7.68602C26.3592 7.55201 26.0646 7.92709 25.6093 8.19499C25.4753 8.11463 24.886 7.84674 24.5645 8.03415C24.2431 8.22156 24.0289 8.40923 23.7073 8.54311C23.5465 8.46275 23.118 8.46275 22.7697 8.59664C22.4215 8.70382 21.8857 8.94489 21.3767 9.6414C21.0553 10.7933 27.0557 9.93599 27.0557 9.93599L29.3863 9.40046Z" fill="#010101"/>
<path d="M29.44 9.40064C28.5827 9.10591 28.7167 8.11482 26.8147 7.9541C26.4396 7.92728 26.1985 8.22187 25.9306 8.40941C26.0647 8.54342 26.1985 8.75766 26.2789 8.9719C26.0378 8.70414 25.6092 8.35575 25.1805 8.2754C24.7787 8.19517 24.5108 8.48977 24.0822 8.70414C24.1624 8.78436 24.2429 8.91837 24.3499 9.07922C23.9749 8.83815 23.7071 8.75779 23.1981 8.9452C22.8499 9.05226 22.1802 9.34698 21.6712 10.0703C21.3498 11.2223 27.0825 9.9363 27.0825 9.9363L29.44 9.40064Z" fill="#8AC640"/>
<path d="M34.4762 9.82905C34.4762 9.82905 34.4762 9.53432 34.4494 9.26656C34.4494 9.21303 34.2352 9.07901 34.2352 9.02549L34.1816 8.97183C34.1816 8.97183 34.6103 8.73076 34.9317 8.86477C35.2798 8.97183 35.4673 9.42727 35.4673 9.42727C36.0835 9.21303 36.137 9.4541 36.4318 9.77552C37.0747 9.64151 37.155 9.88258 37.5569 10.472C37.5569 10.472 37.0747 10.3917 36.1372 10.5523C35.2263 10.6861 34.4762 9.80222 34.4762 9.82905V9.82905Z" fill="#010101"/>
<path d="M34.3692 9.69518C34.3692 9.69518 34.53 9.56116 34.4763 9.53433C34.7709 9.37362 35.1728 9.18621 35.3604 9.69518C35.9765 9.48081 36.0569 9.77553 36.3515 10.0971C37.1015 9.74884 37.155 10.1773 37.2087 10.3649C36.9676 10.3649 36.6195 10.3917 36.1372 10.4452C35.2265 10.5792 34.3424 9.66835 34.3692 9.69518Z" fill="#8AC640"/>
<path d="M25.2612 9.02539C25.2612 9.02539 26.7881 9.56106 28.074 9.4807C29.3598 9.37365 31.5564 9.26646 32.735 9.96297C32.735 9.96297 33.9405 9.53423 35.0656 9.82895C36.1909 10.1236 38.2535 12.0524 37.6374 14.0882C37.5838 14.2223 37.2355 14.4365 36.8338 14.5705C36.8338 14.5705 37.0481 15.4813 36.673 16.2313C36.298 16.9546 35.4676 18.3477 35.4407 20.2763C35.414 20.5978 35.3605 21.2674 35.3068 21.5889C33.2173 21.5086 30.0028 20.7316 26.8418 20.7853C26.8685 20.4372 26.8953 20.2228 26.9221 19.8746H27.0024C26.8417 18.9905 26.7881 18.5351 26.6273 17.8654C25.6093 17.2225 24.5377 16.4725 23.6271 15.0526C22.7431 13.6328 25.2612 9.02539 25.2612 9.02539V9.02539ZM35.6014 23.491C35.6014 23.491 37.2624 29.438 35.3068 31.9293C35.3068 31.9293 35.6014 33.0811 34.9318 34.3135C34.8246 34.8491 34.6906 35.3314 34.6103 35.8671C34.2621 38.0905 33.6726 39.028 33.5119 42.5908L31.9045 42.5641C31.9045 42.5641 31.717 39.9925 31.1545 38.6263C30.8332 37.8495 29.5739 36.8046 29.6277 35.76C29.6812 34.9563 29.8419 34.2866 31.2083 33.215C31.3153 31.6614 29.7616 30.1879 30.0028 24.4017L35.6014 23.491Z" fill="#010101"/>
<path d="M35.1194 23.2498C35.548 25.9821 36.5392 30.0272 34.7444 32.0094C34.8503 32.512 34.8593 33.0303 34.771 33.5363C34.7175 33.8577 34.6103 34.206 34.4765 34.5809C34.2086 35.2239 34.1014 36.1615 34.021 36.724C33.6728 38.9474 33.6728 39.0547 33.512 42.6175L31.9047 42.5906C31.9047 42.5906 31.7171 40.019 31.1546 38.6529C30.8333 37.8761 30.1635 37.2064 30.11 36.1616C30.0565 35.358 30.619 33.7508 31.9584 33.8043C31.8781 30.563 30.3779 31.2058 29.9761 24.4552L35.1194 23.2498ZM25.2614 9.02539C25.2614 9.02539 25.8507 9.21293 26.4936 9.26646C27.1365 9.31999 27.8331 9.26646 28.4491 9.23963C29.7349 9.13258 31.5565 8.99856 32.762 9.69507C32.762 9.69507 33.4317 9.4807 34.155 9.53423C34.4765 9.56106 34.798 9.82895 35.173 9.93614C36.3516 10.2307 37.4767 12.1862 36.9676 13.9543C36.9141 14.0884 36.539 13.9543 36.1104 14.0884C36.1906 14.4634 36.2444 15.3207 35.8157 16.2314C35.3604 17.1423 34.771 18.3209 34.8781 20.5712C32.0654 20.4372 30.8064 20.2498 28.0203 20.1157C27.7793 19.1245 27.6184 18.1334 27.5917 17.6244C27.9668 17.4369 28.1809 17.2763 28.4758 16.9548C27.6722 17.0888 27.3507 17.0351 26.8684 16.7672C26.3862 16.4993 25.529 15.6421 25.1004 15.0796C25.0469 15.0259 24.7523 15.9099 24.0826 15.9368C23.8414 15.5886 24.8593 14.5973 24.6718 14.2224C24.0023 12.8561 25.2614 9.02539 25.2614 9.02539V9.02539Z" fill="#F0EFEF"/>
<path d="M35.3334 21.0263C35.3334 21.0263 35.3869 21.9907 35.3869 22.2318C35.3869 22.4997 35.6013 23.3033 35.628 23.6783C35.3334 24.1873 34.0475 25.3392 31.7169 25.7678C29.4132 26.25 26.3594 22.6337 26.3594 22.6337C26.4397 22.2855 26.7076 21.2674 26.8952 20.7317C26.922 20.6782 26.9755 20.5442 26.9755 20.4907C27.2167 20.1424 35.3334 21.0263 35.3334 21.0263V21.0263Z" fill="#010101"/>
<path d="M34.7441 21.1069C34.7441 21.7766 34.8511 22.2589 34.9316 22.6875C35.0655 23.4644 35.2797 23.9733 35.2797 24.4823C35.2797 26.0359 33.2439 25.768 31.5293 25.8217C29.2255 26.304 27.27 22.6875 27.27 22.6875C27.4307 22.0714 27.5379 21.375 27.779 20.7855C27.8057 20.4641 27.8593 20.0623 27.886 19.8748C31.1542 19.8748 33.458 20.0623 34.7975 20.1961C34.8511 20.4908 34.7976 20.9998 34.7441 21.1069Z" fill="#F0EFEF"/>
<path d="M32.1725 24.5624C32.1725 24.5624 30.7528 21.4014 26.4934 22.3391C25.4756 25.2054 24.1092 28.5004 24.9933 32.0632C24.1092 33.2687 23.0913 33.9385 23.0913 36.1617C23.0913 38.3852 23.1985 38.7602 23.1985 38.7602L26.3327 38.9211C26.3327 38.9211 27.3506 37.6085 27.7524 36.1887C27.8596 35.7868 27.9667 35.0636 27.8864 34.2332C27.9934 34.0725 28.4489 33.6975 28.5025 32.9742C28.5025 32.9742 30.0294 32.1706 30.9135 30.2151C31.744 28.4467 31.5296 26.9198 32.1725 24.5624Z" fill="#010101"/>
<path d="M32.1723 24.5624C32.0921 24.2678 31.0205 21.3748 27.0558 22.2318C24.7253 28.4467 25.5825 31.0184 25.9307 32.1434C24.3501 34.1524 23.6269 34.581 23.9485 38.6529H26.038C27.0023 37.126 27.2166 36.5634 27.2702 34.5543C27.2702 34.474 26.9756 34.715 26.7612 34.9829C26.922 34.1525 27.3773 33.9918 27.7256 33.4829C27.8863 33.2685 28.0202 32.9471 28.0202 32.5185C29.8954 31.2595 30.5919 29.6789 30.9936 28.0448C31.3152 26.9198 31.6901 25.0714 32.1723 24.5624V24.5624Z" fill="#F0EFEF"/>
<path d="M25.5555 20.2498C25.5555 20.2498 26.2789 20.2765 26.9219 20.4908C27.538 20.7051 27.538 20.8389 27.7791 21.107C28.0202 21.375 28.6095 21.7767 28.5024 22.1784C28.4488 22.3928 28.3149 22.4463 28.1273 22.6339C28.047 22.7142 27.4575 23.3571 27.3236 23.4374C27.2433 23.491 27.1361 23.5714 27.0557 23.625L26.654 23.8929C26.3861 24.0269 26.1985 24.1072 25.9039 24.0804C25.9039 24.0804 25.2342 24.0536 24.8055 23.5983C24.8055 23.5983 24.752 23.3839 24.8592 23.2769C24.8592 23.2769 24.2965 22.7946 24.1358 22.4732C23.975 22.1519 23.975 21.6964 24.0823 21.4554C24.1358 21.214 25.1805 20.5444 25.5555 20.2498V20.2498ZM26.2254 46.3145L26.145 46.9843C26.145 46.9843 25.9039 47.2789 24.1091 47.2522C22.2875 47.2253 21.8054 46.6629 21.6447 46.3681L21.5376 45.6716C21.5376 45.6716 21.8859 45.1627 21.9662 45.1627C22.5555 45.2162 24.5647 46.0199 25.9577 46.2341C26.0913 46.2341 26.118 46.2876 26.2254 46.3145ZM30.1095 44.9483C30.1095 45.2429 30.0827 45.2429 30.0827 45.5376C30.4041 45.7787 31.208 45.9127 32.7347 45.8857C34.9581 45.8322 37.0208 46.5555 39.5389 46.1268L39.5657 45.6447L39.3246 45.618L30.4041 44.8946L30.1095 44.9483Z" fill="#010101"/>
<path d="M32.0652 45.8859H32.7349C34.1815 45.8324 35.5477 46.1538 37.021 46.2342C37.7978 46.2073 38.7622 46.0198 38.6819 45.4573L31.0741 44.8143C30.6186 45.3233 30.9668 45.7519 32.0652 45.8859V45.8859ZM23.3323 34.6081C23.5733 34.7689 25.2074 35.7333 27.8594 35.5993C27.8058 36.1082 27.8326 37.0995 26.654 38.8406C26.0646 39.6978 25.5555 41.198 25.4485 43.1C25.4753 43.5286 25.7164 43.9036 25.3949 44.4662C25.502 44.8143 25.9306 45.5108 26.145 45.9394C26.3592 46.3682 26.4664 46.8503 25.0466 46.8772C23.6 46.9039 21.2694 46.7431 21.591 45.6182C21.7518 45.0288 22.2071 44.4127 22.2608 44.1715C22.3143 43.9304 22.3143 43.2072 22.7696 42.7249C23.1715 41.3856 23.0375 40.0997 22.9573 38.8943C22.8233 37.6351 22.7965 35.6261 23.3323 34.6081V34.6081ZM25.8236 12.7758C27.7255 10.2309 26.1182 8.19512 23.0645 8.81114C21.8322 9.05221 20.6 9.90957 20.5195 11.4632C20.1177 11.5167 19.207 11.5702 18.7515 13.2311C18.4034 14.517 18.2159 14.758 17.5996 15.4009C17.1978 15.8563 17.6264 16.7939 17.921 17.4637C18.9123 19.7675 21.9661 19.9817 24.0288 21.723C24.7253 21.5355 25.4485 20.7587 25.6628 20.2498C23.9216 18.1869 24.2965 17.3834 23.6 16.3119C24.3502 16.0439 26.0646 14.9992 25.8236 12.7758Z" fill="#010101"/>
<path d="M25.4489 12.6149C25.5559 12.4541 25.7434 12.106 25.8239 11.9719C25.8508 11.9451 26.1454 12.4541 26.1722 12.4274C26.8954 11.2486 27.0829 9.53416 26.2524 9.37345C26.0649 9.34662 25.7167 9.26639 25.422 9.15908C24.8864 8.97154 24.4042 8.97154 23.5469 9.13238C22.3682 9.34662 21.1896 10.2038 21.1896 11.4361C21.1896 11.5165 22.0198 11.7576 22.261 12.7488C21.8591 12.1862 21.1626 11.57 20.3322 12.1058C19.4482 12.6683 19.9036 13.9542 18.725 15.2935C18.3231 15.749 18.3767 16.2847 18.8052 17.3562C19.5017 19.044 22.7967 19.9547 24.5915 21.562C25.0201 21.3744 25.3147 20.9458 25.5291 20.6244C24.3236 19.3654 23.8413 18.1866 23.4932 17.3294C23.0646 16.3383 22.5823 15.7758 21.6447 15.0255C22.127 15.213 22.5021 15.4006 22.7162 15.5613C22.9573 15.722 23.3055 15.7488 23.6271 15.6416C24.7792 15.2401 25.3953 13.6327 25.4489 12.6149Z" fill="#F0EFEF"/>
<path d="M37.1016 13.0438C37.0213 14.0617 36.2713 13.5527 35.8695 13.3652C35.0658 13.0169 34.2621 12.7759 33.3245 12.7759C32.3869 12.7759 31.1815 12.8562 30.1368 13.1241C28.6903 13.5259 28.2615 13.4992 27.6187 13.1777C26.9758 12.8294 25.8508 11.9722 25.8508 11.9722C25.8508 11.9722 25.824 12.2401 26.0919 12.5883C26.44 13.0169 27.217 13.5527 28.2617 13.9009C28.7706 14.0617 29.1725 13.9544 29.628 13.8473C32.0121 13.258 34.5301 13.1508 36.6463 14.4367C36.7535 14.4902 37.1286 14.3295 37.2893 14.0884C37.5034 13.7403 37.1016 13.0438 37.1016 13.0438V13.0438Z" fill="#010101"/>
<path d="M24.9131 23.2498C25.1273 23.3838 25.3952 23.4641 25.6898 23.7052C25.6898 23.7052 25.4488 23.7052 25.3417 23.5981C25.2077 23.5178 24.9398 23.2767 24.9131 23.2498V23.2498Z" fill="#0A1825"/>
<path d="M32.6547 2.00697C32.5744 1.7659 31.9849 1.33716 30.6188 1.33716C29.1455 1.33716 28.7169 1.7926 28.6902 2.03367C28.6902 2.11402 28.583 2.97138 28.5562 3.3195C28.5562 3.3195 28.5562 3.74811 28.5829 4.39096C28.6097 4.81957 28.7169 5.06064 28.7704 5.62327C28.8239 6.21246 28.9848 6.58754 29.2794 7.06981C29.4134 7.15004 29.5204 7.23053 29.6544 7.25736C30.1902 7.36441 31.1278 7.39124 31.6368 7.25736C31.9314 7.177 32.3065 6.66803 32.3868 6.21259C32.4939 5.6501 32.6011 5.24818 32.6279 4.90006C32.6814 4.55194 32.7082 3.77494 32.7349 3.56057C32.8154 2.97138 32.6814 2.0605 32.6547 2.00697V2.00697Z" fill="#F0EFEF"/>
<path d="M29.842 35.1169C29.842 35.1169 31.2618 35.7331 34.7711 35.1973C34.7711 35.1973 33.78 40.1799 34.2354 42.6711C34.2354 42.6711 34.6907 43.3141 38.0661 44.5462C38.0661 44.5462 39.5661 44.9213 39.5126 45.6715C39.5126 45.6715 39.5661 45.8322 37.7446 45.7786C35.9231 45.7249 34.2086 45.4035 33.0031 45.4035C31.7976 45.4035 30.5118 45.457 30.2975 45.1089C30.0565 44.7874 30.3511 43.9569 30.6993 43.4747C31.0745 42.9658 30.9672 42.5906 30.9405 41.68C30.8599 39.2959 29.0383 36.8314 29.842 35.1169V35.1169Z" fill="#010101"/>
<path d="M29.547 35.5724C29.3595 35.8403 29.5737 36.8581 29.8416 37.8493C30.1095 38.8404 30.699 39.4299 30.8328 41.0639C30.9667 42.6711 30.9936 42.8855 30.5381 43.823C30.0827 44.7604 29.9488 45.6178 31.5292 45.6446C33.1096 45.6714 33.967 45.6178 35.5743 45.859C37.1816 46.1 37.7441 46.1804 38.6282 46.0465C39.5122 45.9126 39.6997 45.6178 39.3247 45.35C38.9496 45.0821 37.3959 44.7875 36.7262 44.2516C36.0832 43.7694 34.2617 42.9657 34.235 42.7515C34.1547 42.0281 34.1278 39.4029 34.2617 38.5457C34.3957 37.6884 34.5832 36.4562 34.6368 36.1347C34.6905 35.8133 34.9582 35.4918 34.5028 35.5989C34.0475 35.706 32.333 35.9472 31.0472 35.8668C29.7614 35.7866 29.6275 35.4919 29.547 35.5724V35.5724Z" fill="#8AC640"/>
<path opacity="0.3" d="M30.4578 43.85C30.9132 44.0642 31.583 44.2251 32.0919 44.2251C32.0919 44.2251 31.9043 45.1091 32.199 45.6448C32.4936 46.1806 30.0559 45.8592 30.0559 45.8592L29.9489 43.9572L30.4578 43.85ZM37.5567 46.1538C37.9853 46.0197 38.28 45.5376 37.9318 45.0823C37.5567 44.6268 37.2353 44.5465 37.7174 44.5198C38.1997 44.493 39.9676 45.5644 39.9676 45.5644L39.0568 46.3948L37.5567 46.1538ZM29.4666 36.6171C30.0828 36.8315 31.0203 36.885 31.824 36.8582C32.6276 36.8315 33.8331 36.7241 34.6101 36.4564C35.3868 36.1885 35.0654 36.751 35.0654 36.751L34.6368 37.1529C34.6368 37.1529 33.6188 37.5547 31.9581 37.528C30.0025 37.5011 29.4131 37.2869 29.4131 37.2869L29.4666 36.6171ZM29.5201 37.9566C30.1364 38.171 31.0739 38.2245 31.8776 38.1977C32.6811 38.171 33.7527 38.171 34.5296 37.8762C34.851 37.7692 34.6636 38.2245 34.6636 38.2245L34.5296 38.4655C34.5296 38.4655 33.4848 38.8406 31.8507 38.8137C29.8952 38.787 29.547 38.6261 29.547 38.6261L29.5201 37.9566Z" fill="#010101"/>
<path d="M27.7524 19.1782C27.7524 19.3658 29.842 20.4104 30.9938 20.6248C32.1457 20.839 34.5567 20.6248 34.9316 20.5444L34.878 20.9195C34.878 20.9195 32.0117 21.3481 29.8151 20.7588C27.6184 20.1695 27.8596 20.0354 27.8596 20.0354L27.7524 19.1782Z" fill="#010101"/>
<path d="M23.2788 42.0282C23.6002 42.1891 24.7522 42.4837 25.5022 42.323C25.6092 42.2961 25.5022 40.4745 25.7969 39.6441C26.2255 38.4922 26.922 37.5546 27.2433 35.5189C26.1182 35.4117 24.8325 35.117 24.1627 34.9026C23.3056 37.5279 23.6003 39.778 23.2788 42.0282V42.0282ZM25.0737 43.716C25.2613 43.7695 25.3951 43.9837 25.4488 43.85C25.5559 43.6088 25.2613 43.1535 25.2344 42.8321V42.8052C24.9934 42.591 23.3593 42.5642 23.4665 42.6712C23.2789 43.0195 22.9843 42.9659 22.8773 43.6625C22.8237 44.0106 23.2524 43.716 23.654 43.6892C22.9308 44.1713 22.1004 44.7876 21.9664 45.3232C21.8057 46.0733 22.0736 46.2876 22.8773 46.6895C23.5738 46.8503 24.4042 46.8771 25.047 46.8503C25.7704 46.7162 25.9044 46.3681 25.69 45.8859C25.3683 45.1625 25.1541 44.2249 25.0737 43.716V43.716Z" fill="#F0EFEF"/>
<path d="M25.3683 8.91821C26.2523 9.42718 27.4846 9.2933 27.9399 9.26647C28.0471 9.26647 29.1187 9.07893 29.1722 9.10562C29.2793 9.13245 29.2793 9.21281 29.2793 9.21281C29.2793 9.21281 28.8775 9.42705 27.9667 9.48057C27.1095 9.5341 26.0916 9.48058 25.5291 9.21281C24.8593 8.91821 25.3683 8.91821 25.3683 8.91821ZM34.4763 9.42718C34.637 9.53423 35.6817 9.93615 36.1372 10.4183C36.539 10.847 36.3247 10.8202 36.2442 10.713C36.1372 10.579 35.3067 10.0165 34.9852 9.88262C34.6638 9.74874 34.2619 9.50754 34.2619 9.45401C34.2619 9.40048 34.4763 9.42718 34.4763 9.42718V9.42718Z" fill="#010101"/>
<path d="M25.2341 20.5442C26.011 20.4906 26.8146 20.6782 27.3236 21.2139C27.5915 21.4818 28.0201 21.7764 27.9666 22.0443C27.9666 22.1246 27.8058 22.339 27.672 22.4997C27.5916 22.6067 27.3506 22.8478 27.2701 22.9283C27.163 23.0087 26.788 23.3034 26.7076 23.3569C26.6272 23.4106 26.5201 23.5446 26.4397 23.5713C26.1719 23.7053 25.8772 23.5981 25.6093 23.4642C25.3415 23.3302 25.663 23.3034 25.3682 23.0892C24.645 22.5802 24.2431 22.2318 24.5378 21.2407C24.5645 21.0531 24.8591 20.8388 25.2341 20.5442V20.5442Z" fill="#F0EFEF"/>
<path opacity="0.4" d="M18.4033 14.4099C15.9924 15.3743 9.85783 18.4282 8.1167 19.3658C9.56324 20.2766 10.2329 22.4731 10.4473 24.6966C10.474 24.9109 10.5008 25.0985 10.5276 25.3127C10.5543 25.5002 10.5812 25.6341 10.6079 25.7146C10.6079 25.7414 10.6079 25.795 10.6347 25.8217C12.2153 21.5089 17.8674 16.9548 18.0818 16.6066C18.1888 16.4459 17.9478 15.7494 18.3228 15.0798C18.8051 14.2223 19.7428 13.8473 18.4033 14.4099V14.4099ZM24.136 34.635C25.3681 32.1705 25.395 29.8131 25.3681 27.0538C25.3681 25.9019 26.1985 24.2678 25.77 24.7232C24.1627 26.5179 20.1178 29.8934 17.1979 30.0808C21.2964 29.9469 22.9037 32.0096 24.136 34.635Z" fill="#010101"/>
<path d="M5.75928 21.6425C7.28617 20.5442 15.1887 16.3386 17.0907 15.7492C18.9925 15.133 18.4032 14.4097 18.4032 14.4097C18.4032 14.4097 10.6882 17.7314 6.0807 20.5978" fill="#010101"/>
<path opacity="0.4" d="M28.2615 13.901C27.6453 13.6599 27.1632 14.3832 27.3239 15.0797C27.4847 15.7762 28.9313 16.553 28.8508 19.0979C28.7973 21.1875 28.3418 22.0446 28.3418 22.0446L27.3239 20.7589C27.3239 20.7589 27.1632 17.8656 26.8149 17.437C26.4668 17.0084 25.3684 16.2315 24.9398 15.8298C24.5112 15.4279 25.4219 14.8922 25.3684 14.142C25.3149 13.4188 25.8238 11.9723 25.8238 11.9723L28.2615 13.901ZM31.9851 25.3126C31.9316 27.3216 32.387 30.2952 32.5744 31.715C32.7619 33.1348 33.003 33.2419 32.5744 33.8849C32.1458 34.5011 31.5833 35.519 31.5833 35.519L29.7348 35.3582C29.7348 35.3582 31.2082 33.483 31.2884 33.1348C31.3688 32.7866 30.5384 30.1346 30.5384 30.1346L31.9851 25.3126ZM28.4223 6.56105C28.7974 7.39131 29.2527 7.76639 29.9759 8.00759C30.4045 8.16831 32.0921 8.38268 32.7619 7.63251C33.0565 7.28426 32.869 6.34668 32.869 6.34668L31.3421 7.57885L29.2794 7.2039L29.0383 6.58775L28.4223 6.56105Z" fill="#010101"/>
<path d="M28.5829 8.40918C29.2794 8.86462 31.0207 9.29323 31.5028 9.37359C31.9849 9.48064 32.7618 8.86462 33.1369 8.70391C33.5388 8.51637 34.2353 8.40918 35.0389 9.13252C35.1192 9.21288 34.8513 9.56113 34.8513 9.56113C34.8245 9.5343 34.6638 9.5343 34.4494 9.42712C34.2352 9.32006 34.0476 9.23957 33.7262 9.2664C32.3867 9.42712 32.1725 9.88256 30.9938 9.61453C29.8152 9.3465 29.5205 9.13239 28.3687 9.18592" fill="#8AC640"/>
<path d="M28.5829 8.40918C29.2794 8.86462 31.0207 9.29323 31.5028 9.37359C31.9849 9.48064 32.7618 8.86462 33.1369 8.70391C33.5388 8.51637 34.2353 8.40918 35.0389 9.13252C35.1192 9.21288 34.8513 9.56113 34.8513 9.56113C34.8245 9.5343 34.6638 9.5343 34.4494 9.42712C34.2352 9.32006 34.0476 9.23957 33.7262 9.2664C32.3867 9.42712 32.1725 9.88256 30.9938 9.61453C29.8152 9.3465 29.5205 9.13239 28.3687 9.18592" stroke="#010101" stroke-width="0.5" stroke-miterlimit="10" stroke-linejoin="round"/>
<path d="M28.3418 8.48975C29.2259 8.86483 30.9403 9.2666 31.4225 9.37379C31.9046 9.48097 32.6815 8.99871 33.0566 8.75764C33.7264 8.32904 34.5835 8.67729 34.9854 9.13272C35.2531 9.42732 35.3605 9.61486 35.3605 9.69521C35.3605 9.80227 35.039 9.69521 35.039 9.69521C34.8515 9.61486 34.6371 9.58816 34.4765 9.48084C34.2622 9.37379 34.0478 9.21308 33.7265 9.23978C32.387 9.40062 32.1191 9.85592 30.9673 9.58803C29.8155 9.32013 29.5207 9.07906 28.2886 9.15929" fill="#8AC640"/>
<path d="M24.1894 33.5096C24.1359 33.456 24.2429 33.4025 24.1894 33.4025C23.8413 33.4025 23.359 33.1346 23.091 32.7595C21.9392 31.0988 20.2514 30.0005 17.1976 30.0808C12.6168 30.1879 10.7952 28.3129 10.447 24.7233C10.2595 22.7678 9.72369 20.8658 8.6254 19.7942L7.98242 20.1961C9.21459 21.2676 9.61651 23.0088 9.88441 25.3929C10.313 28.9825 13.2061 30.6435 16.5815 30.697C20.0907 30.7505 21.3497 31.4738 22.6622 33.2419C23.0908 33.8044 23.5731 33.992 23.9481 34.0723L24.1894 33.5096Z" fill="#010101"/>
<path opacity="0.4" d="M36.6194 16.2849C36.6998 16.6867 36.914 17.4636 37.3426 17.8385C37.5303 18.0261 37.557 18.0796 37.3963 18.0796C37.2354 18.0796 36.0568 18.0261 36.0568 18.0261L35.7354 17.4636L36.6194 16.2849Z" fill="#010101"/>
</svg>
