<?xml version="1.0" standalone="no"?>
<svg xmlns="http://www.w3.org/2000/svg" viewBox="0 20 140 70" xmlns:xlink="http://www.w3.org/1999/xlink" id="body_1" width="48px" height="48px">

<g transform="matrix(0.07018442 0 0 0.06938776 0 0)">
	<g transform="matrix(1 0 0 1.000088 0 0.002502663)">
	</g>
    <path transform="matrix(1 0 0 1.000088 0 0.002502663)"  d="M1436.62 603.304L1493.01 460.705L1655.83 460.705L1578.56 244.39L1675.2 0.000528336L1952 734.933L1747.87 734.933L1700.57 603.304L1436.62 603.304z" stroke="none" fill="#3D3D3D" fill-rule="nonzero" />
	<g transform="matrix(1 0 0 1.000088 0 0.002502663)">
	</g>
    <path transform="matrix(1 0 0 1.000088 0 0.002502663)"  d="M1262.47 734.935L1558.79 0.00156593L1362.34 0.0025425L1159.64 474.933L1015.5 0.00351906L864.499 0.00351906L709.731 474.933L600.585 258.517L501.812 562.819L602.096 734.935L795.427 734.935L935.284 309.025L1068.63 734.935L1262.47 734.935z" stroke="none" fill="#5A0FC8" fill-rule="nonzero" />
	<g transform="matrix(1 0 0 1.000088 0 0.002502663)">
	</g>
    <path transform="matrix(1 0 0 1.000088 0 0.002502663)"  d="M186.476 482.643L307.479 482.643C 344.133 482.643 376.772 478.552 405.396 470.37L405.396 470.37L436.689 373.962L524.148 104.516C 517.484 93.9535 509.876 83.9667 501.324 74.5569C 456.419 24.852 390.719 0.000406265 304.222 0.000406265L304.222 0.000406265L-3.8147E-06 0.000406265L-3.8147E-06 734.933L186.476 734.933L186.476 482.643zM346.642 169.079C 364.182 186.732 372.951 210.355 372.951 239.95C 372.951 269.772 365.238 293.424 349.813 310.906C 332.903 330.331 301.766 340.043 256.404 340.043L256.404 340.043L186.476 340.043L186.476 142.598L256.918 142.598C 299.195 142.598 329.103 151.425 346.642 169.079z" stroke="none" fill="#3D3D3D" fill-rule="nonzero" />
</g>
</svg>