<?xml version="1.0" encoding="UTF-8" standalone="no"?>
<svg
   xmlns:dc="http://purl.org/dc/elements/1.1/"
   xmlns:cc="http://creativecommons.org/ns#"
   xmlns:rdf="http://www.w3.org/1999/02/22-rdf-syntax-ns#"
   xmlns:svg="http://www.w3.org/2000/svg"
   xmlns="http://www.w3.org/2000/svg"
   xmlns:xlink="http://www.w3.org/1999/xlink"
   xmlns:sodipodi="http://sodipodi.sourceforge.net/DTD/sodipodi-0.dtd"
   xmlns:inkscape="http://www.inkscape.org/namespaces/inkscape"
   version="1.1"
   id="Layer_1"
   x="0px"
   y="0px"
   viewBox="-20 -20 100 100"
   xml:space="preserve"
   sodipodi:docname="Solo.svg"
   inkscape:version="0.92.4 (5da689c313, 2019-01-14)"><metadata
   id="metadata923"><rdf:RDF><cc:Work
       rdf:about=""><dc:format>image/svg+xml</dc:format><dc:type
         rdf:resource="http://purl.org/dc/dcmitype/StillImage" /></cc:Work></rdf:RDF></metadata><defs
   id="defs921"><linearGradient
     inkscape:collect="always"
     id="linearGradient929"><stop
       style="stop-color:#000000;stop-opacity:1;"
       offset="0"
       id="stop925" /><stop
       style="stop-color:#000000;stop-opacity:0;"
       offset="1"
       id="stop927" /></linearGradient><linearGradient
     inkscape:collect="always"
     xlink:href="#linearGradient929"
     id="linearGradient931"
     x1="1.3950037"
     y1="26.207426"
     x2="327.3"
     y2="26.207426"
     gradientUnits="userSpaceOnUse" /></defs><sodipodi:namedview
   pagecolor="#ffffff"
   bordercolor="#666666"
   borderopacity="1"
   objecttolerance="10"
   gridtolerance="10"
   guidetolerance="10"
   inkscape:pageopacity="0"
   inkscape:pageshadow="2"
   inkscape:window-width="1920"
   inkscape:window-height="1000"
   id="namedview919"
   showgrid="false"
   inkscape:zoom="12.95"
   inkscape:cx="34.25887"
   inkscape:cy="60.888031"
   inkscape:window-x="2869"
   inkscape:window-y="243"
   inkscape:window-maximized="1"
   inkscape:current-layer="g914" />
                <g
   id="g916"
   style="fill-opacity:1;fill:url(#linearGradient931)">
                <g
   id="g914"
   style="fill-opacity:1;fill:url(#linearGradient931)">
                
                
	                    <g
   id="g894"
   style="fill:#ffffff;fill-opacity:1;stroke:none;stroke-opacity:1;opacity:1"
   transform="translate(-99.911724,3.5995239)"><g
     id="g872"
     style="fill:#ffffff;fill-opacity:1;stroke:none;stroke-opacity:1"><path
       d="m 120.8,4 c -6.8,2.2 -13.9,8.4 -13,15.4 0,8 8,14.2 15.9,16.8 C 117.5,29.1 113.1,20.3 117,10.6 118.8,6.5 120.8,4 120.8,4 Z"
       id="path870"
       style="fill:#ffffff;fill-opacity:1;stroke:none;stroke-opacity:1"
       inkscape:connector-curvature="0" /></g><g
     id="g876"
     style="fill:#ffffff;fill-opacity:1;stroke:none;stroke-opacity:1"><path
       d="m 106.1,21.3 c -2.7,7 -0.1,15.8 5.2,19.4 7.1,5.3 16.8,2.7 23.9,-3.5 -9.7,1.8 -20.3,0 -25.7,-8.7 -2.4,-4.1 -3.4,-7.2 -3.4,-7.2 z"
       id="path874"
       style="fill:#ffffff;fill-opacity:1;stroke:none;stroke-opacity:1"
       inkscape:connector-curvature="0" /></g><g
     id="g880"
     style="fill:#ffffff;fill-opacity:1;stroke:none;stroke-opacity:1"><path
       d="m 112.5,43.4 c 4.9,6 13.8,8.5 20.9,5.8 4.8,-1.9 8.4,-7.1 9.2,-13 0.5,-3 -0.1,-5.5 -0.5,-8.5 -3.5,9.7 -11.4,16.5 -21.6,17 -4.7,-0.3 -8,-1.3 -8,-1.3 z"
       id="path878"
       style="fill:#ffffff;fill-opacity:1;stroke:none;stroke-opacity:1"
       inkscape:connector-curvature="0" /></g><g
     id="g884"
     style="fill:#ffffff;fill-opacity:1;stroke:none;stroke-opacity:1"><path
       d="m 136.4,49.6 c 7.7,-1.9 15.6,-9 15.6,-16.9 0,-5.3 -5.5,-14.8 -15.9,-16.8 7.1,7.1 11.5,18.6 5.4,27.5 -2.7,3.9 -5.1,6.2 -5.1,6.2 z"
       id="path882"
       style="fill:#ffffff;fill-opacity:1;stroke:none;stroke-opacity:1"
       inkscape:connector-curvature="0" /></g><g
     id="g888"
     style="fill:#ffffff;fill-opacity:1;stroke:none;stroke-opacity:1"><path
       d="m 153.5,30.5 c 1.1,-7.6 -0.7,-17.3 -7.7,-20.9 -4.4,-2.7 -17.3,-0.1 -21.2,7.1 8.9,-3.5 20.3,-2.7 25.7,6.8 2.3,3.9 3.2,7 3.2,7 z"
       id="path886"
       style="fill:#ffffff;fill-opacity:1;stroke:none;stroke-opacity:1"
       inkscape:connector-curvature="0" /></g><g
     id="g892"
     style="fill:#ffffff;fill-opacity:1;stroke:none;stroke-opacity:1"><path
       d="M 144.3,7.1 C 138.7,2.6 129.9,0 123.7,4.4 c -7.1,4.4 -8.8,14.1 -4.4,22.1 0.9,-9.7 8,-17.7 17.4,-19.4 4.4,-0.5 7.6,0 7.6,0 z"
       id="path890"
       style="fill:#ffffff;fill-opacity:1;stroke:none;stroke-opacity:1"
       inkscape:connector-curvature="0" /></g></g></g>
                    </g>
                </svg>